<?xml version="1.0" encoding="utf-8"?>
<!-- Generator: Adobe Illustrator 22.0.1, SVG Export Plug-In . SVG Version: 6.00 Build 0)  -->
<svg version="1.1" id="Lager_1" xmlns="http://www.w3.org/2000/svg" xmlns:xlink="http://www.w3.org/1999/xlink" x="0px" y="0px"
	 viewBox="0 0 491 282" style="enable-background:new 0 0 491 282;" xml:space="preserve">
<style type="text/css">
	.st0{display:none;fill:#8913E5;stroke:#000000;stroke-miterlimit:10;}
	.st1{opacity:0.4296;fill:url(#right-circle_3_);enable-background:new    ;}
	.st2{opacity:0.22;fill:url(#Oval-Copy-5_3_);enable-background:new    ;}
	.st3{opacity:9.000000e-02;fill:url(#Oval-Copy-6_3_);enable-background:new    ;}
	.st4{opacity:0.4296;fill:url(#right-circle_4_);enable-background:new    ;}
	.st5{opacity:0.22;fill:url(#Oval-Copy-5_4_);enable-background:new    ;}
	.st6{opacity:9.000000e-02;fill:url(#Oval-Copy-6_4_);enable-background:new    ;}
	.st7{opacity:0.4296;fill:url(#right-circle_5_);enable-background:new    ;}
	.st8{opacity:0.22;fill:url(#Oval-Copy-5_5_);enable-background:new    ;}
	.st9{opacity:9.000000e-02;fill:url(#Oval-Copy-6_5_);enable-background:new    ;}
</style>
<title>subscribe-widget-bg</title>
<desc>Created with Sketch.</desc>
<rect x="-8" y="-6" class="st0" width="517.5" height="303.5"/>
<g id="Main-Mockups">
	<g id="subscribe-widget-bg" transform="translate(-20.000000, -14.000000)">
		
			<linearGradient id="right-circle_3_" gradientUnits="userSpaceOnUse" x1="-696.1995" y1="692.9664" x2="-696.1995" y2="692.3381" gradientTransform="matrix(-32.1249 -182.1894 -182.1894 32.1249 104138.2813 -148982.0938)">
			<stop  offset="0" style="stop-color:#FFFFFF;stop-opacity:0"/>
			<stop  offset="1" style="stop-color:#FFFFFF"/>
		</linearGradient>
		<circle id="right-circle" class="st1" cx="309.7" cy="109.5" r="58.1"/>
		
			<linearGradient id="Oval-Copy-5_3_" gradientUnits="userSpaceOnUse" x1="-687.7801" y1="695.3367" x2="-687.7801" y2="694.7084" gradientTransform="matrix(140.9539 51.303 49.5929 -136.2554 62686.918 130171.4766)">
			<stop  offset="0" style="stop-color:#FFFFFF;stop-opacity:0"/>
			<stop  offset="1" style="stop-color:#FFFFFF"/>
		</linearGradient>
		<path id="Oval-Copy-5" class="st2" d="M190.8,227.2c22.5,8.2,54.7-1.7,62.9-24.2c8.2-22.6-6.8-52.3-29.4-60.5s-51.3,6.4-59.5,29
			C156.6,194.1,168.2,219,190.8,227.2z"/>
		
			<linearGradient id="Oval-Copy-6_3_" gradientUnits="userSpaceOnUse" x1="-695.9495" y1="703.639" x2="-695.9495" y2="703.0107" gradientTransform="matrix(-84.8528 84.8528 76.3675 76.3675 -112592.4297 5507.8076)">
			<stop  offset="0" style="stop-color:#FFFFFF;stop-opacity:0"/>
			<stop  offset="1" style="stop-color:#FFFFFF"/>
		</linearGradient>
		<path id="Oval-Copy-6" class="st3" d="M150.4,139.3c-12.5,12.5-23.1,35-10.7,47.4s43.1,16.1,55.6,3.6
			c12.5-12.5,12.5-42.2,0.1-54.6S162.9,126.9,150.4,139.3z"/>
	</g>
</g>
<g id="Main-Mockups_1_">
	<g id="subscribe-widget-bg_1_" transform="translate(-20.000000, -14.000000)">
		
			<linearGradient id="right-circle_4_" gradientUnits="userSpaceOnUse" x1="-696.6753" y1="692.2913" x2="-696.6753" y2="691.6629" gradientTransform="matrix(-127.5267 134.0222 134.0222 127.5267 -181419.7188 5217.4165)">
			<stop  offset="0" style="stop-color:#FFFFFF;stop-opacity:0"/>
			<stop  offset="1" style="stop-color:#FFFFFF"/>
		</linearGradient>
		<circle id="right-circle_1_" class="st4" cx="165.2" cy="93" r="58.1"/>
		
			<linearGradient id="Oval-Copy-5_4_" gradientUnits="userSpaceOnUse" x1="-687.1236" y1="695.3815" x2="-687.1236" y2="694.7531" gradientTransform="matrix(-42.408 -143.8804 -139.0844 40.9944 67815.0156 -127172.0703)">
			<stop  offset="0" style="stop-color:#FFFFFF;stop-opacity:0"/>
			<stop  offset="1" style="stop-color:#FFFFFF"/>
		</linearGradient>
		<path id="Oval-Copy-5_1_" class="st5" d="M326.3,176.1c-6.8-23-33.8-43-56.8-36.2s-38,36.5-31.3,59.5s35.6,37.4,58.7,30.6
			S333.1,199.1,326.3,176.1z"/>
		
			<linearGradient id="Oval-Copy-6_4_" gradientUnits="userSpaceOnUse" x1="-696.4154" y1="704.3582" x2="-696.4154" y2="703.7298" gradientTransform="matrix(118.6578 17.8974 16.1076 -106.7921 71573 87885.5)">
			<stop  offset="0" style="stop-color:#FFFFFF;stop-opacity:0"/>
			<stop  offset="1" style="stop-color:#FFFFFF"/>
		</linearGradient>
		<path id="Oval-Copy-6_1_" class="st6" d="M269.9,268.2c17.4,2.6,41.9-2.2,44.5-19.6c2.6-17.3-12.7-44.3-30.1-46.9
			c-17.4-2.6-41.4,15-44,32.3S252.5,265.6,269.9,268.2z"/>
	</g>
</g>
<g id="Main-Mockups_2_">
	<g id="subscribe-widget-bg_2_" transform="translate(-20.000000, -14.000000)">
		
			<linearGradient id="right-circle_5_" gradientUnits="userSpaceOnUse" x1="-697.2328" y1="692.7609" x2="-697.2328" y2="692.1326" gradientTransform="matrix(132.7875 128.8118 128.8118 -132.7875 3669.9976 181961.5938)">
			<stop  offset="0" style="stop-color:#FFFFFF;stop-opacity:0"/>
			<stop  offset="1" style="stop-color:#FFFFFF"/>
		</linearGradient>
		<circle id="right-circle_2_" class="st7" cx="281.5" cy="201.5" r="58.1"/>
		
			<linearGradient id="Oval-Copy-5_5_" gradientUnits="userSpaceOnUse" x1="-687.4214" y1="694.3582" x2="-687.4214" y2="693.7299" gradientTransform="matrix(-144.2822 41.0201 39.6528 139.4728 -126312.5234 -68536.8516)">
			<stop  offset="0" style="stop-color:#FFFFFF;stop-opacity:0"/>
			<stop  offset="1" style="stop-color:#FFFFFF"/>
		</linearGradient>
		<path id="Oval-Copy-5_2_" class="st8" d="M382,20.5C358.9,27,338.7,53.9,345.2,77s36.2,38.4,59.2,31.8
			c23.1-6.6,37.8-35.3,31.2-58.4C429.1,27.3,405.1,13.9,382,20.5z"/>
		
			<linearGradient id="Oval-Copy-6_5_" gradientUnits="userSpaceOnUse" x1="-695.1608" y1="704.598" x2="-695.1608" y2="703.9697" gradientTransform="matrix(19.0396 -118.4799 -106.6319 -17.1356 88771.2656 -70223.0703)">
			<stop  offset="0" style="stop-color:#FFFFFF;stop-opacity:0"/>
			<stop  offset="1" style="stop-color:#FFFFFF"/>
		</linearGradient>
		<path id="Oval-Copy-6_2_" class="st9" d="M469.5,80c2.8-17.4-1.8-41.9-19.1-44.7c-17.3-2.8-44.4,12.2-47.2,29.6
			c-2.8,17.4,14.6,41.5,31.9,44.3C452.4,111.9,466.7,97.4,469.5,80z"/>
	</g>
</g>
</svg>
