<?xml version="1.0" encoding="utf-8"?>
<!-- Generator: Adobe Illustrator 22.0.1, SVG Export Plug-In . SVG Version: 6.00 Build 0)  -->
<svg version="1.1" id="Lager_1" xmlns="http://www.w3.org/2000/svg" xmlns:xlink="http://www.w3.org/1999/xlink" x="0px" y="0px"
	 viewBox="0 0 1920 1080" style="enable-background:new 0 0 1920 1080;" xml:space="preserve">
<style type="text/css">
	.st0{opacity:0.1;}
	.st1{fill:#F2F2F2;}
</style>
<path class="st0" d="M1963.3,175.6c0,0-139.9,15.8-165.4,240.3c-25.5,224.5-207.6,336.1-346.4,368.9s-163.2,252.1,30,354.5
	c193.2,102.4,753.9,31.5,753.9,31.5l-77.7-626.3c0,0-107.7-382.1-113.3-386C2038.8,154.6,1963.3,175.6,1963.3,175.6z"/>
<circle class="st0" cx="1745" cy="319" r="11.3"/>
<circle class="st0" cx="1390.5" cy="802.5" r="33.2"/>
<path class="st1" d="M1737.9,639.1c-1.6-6.1-4-11.8-7.2-17.3l5.7-11.4l-18.9-18.9l-11.4,5.7c-5.5-3.2-11.2-5.6-17.3-7.2l-4-12.1
	h-26.7l-4,12.1c-6.1,1.6-11.8,4-17.3,7.2l-11.4-5.7l-18.9,18.9l5.7,11.4c-3.2,5.5-5.6,11.2-7.2,17.3l-12.1,4v13.3h-122.6
	c-13.5,0-24.5,11-24.5,24.5v147.1c0,13.5,11,24.5,24.5,24.5h63.7v19.6h-19.6v9.8h166.7v-9.8h-19.6v-19.6h63.7
	c13.5,0,24.5-11,24.5-24.5v-185L1737.9,639.1z M1651.9,872.2h-107.9v-19.6h107.9V872.2z M1725.5,842.8h-255
	c-8.1,0-14.7-6.6-14.7-14.7v-4.9h284.4v4.9C1740.2,836.2,1733.6,842.8,1725.5,842.8z M1740.2,813.4h-284.4V681
	c0-8.1,6.6-14.7,14.7-14.7h122.6v3.6l12.1,4c1.6,6.1,4,11.8,7.2,17.3l-5.7,11.4l18.9,18.9l11.4-5.7c5.5,3.2,11.2,5.6,17.3,7.2
	l4,12.1h26.7l4-12.1c6.1-1.6,11.8-4,17.3-7.2l11.4,5.7l18.9-18.9l-5.7-11.4c3.2-5.5,5.6-11.2,7.2-17.3l2.3-0.7L1740.2,813.4
	L1740.2,813.4z M1740.2,662.7l-10.6,3.6l-0.6,2.7c-1.5,6.8-4.2,13.3-8,19.2l-1.5,2.3l5,10l-8.8,8.9l-10-5l-2.3,1.5
	c-5.9,3.8-12.4,6.5-19.2,8l-2.7,0.6l-3.6,10.6h-12.6l-3.6-10.6l-2.7-0.6c-6.8-1.5-13.3-4.2-19.2-8l-2.3-1.5l-10,5l-8.9-8.8l5-10
	l-1.5-2.3c-3.8-5.9-6.5-12.4-8-19.2l-0.6-2.7l-10.6-3.6v-12.6l10.6-3.6l0.6-2.7c1.5-6.8,4.2-13.3,8-19.2l1.5-2.3l-5-10.1l8.8-8.8
	l10,5l2.3-1.5c5.9-3.8,12.4-6.5,19.2-8l2.7-0.6l3.6-10.6h12.6l3.6,10.6l2.7,0.6c6.8,1.5,13.3,4.2,19.2,8l2.3,1.5l10-5l8.9,8.8l-5,10
	l1.5,2.3c3.8,5.9,6.5,12.4,8,19.2l0.6,2.7l10.6,3.6L1740.2,662.7L1740.2,662.7z"/>
<path class="st1" d="M1681.5,627.4c-27,0-49,22-49,49c0,27,22,49,49,49c27,0,49-22,49-49C1730.6,649.4,1708.6,627.4,1681.5,627.4z
	 M1681.5,715.7c-21.6,0-39.2-17.6-39.2-39.2s17.6-39.2,39.2-39.2c21.6,0,39.2,17.6,39.2,39.2S1703.2,715.7,1681.5,715.7z"/>
<path class="st1" d="M1681.5,656.8c-10.8,0-19.6,8.8-19.6,19.6s8.8,19.6,19.6,19.6s19.6-8.8,19.6-19.6S1692.3,656.8,1681.5,656.8z
	 M1681.5,686.3c-5.4,0-9.8-4.4-9.8-9.8s4.4-9.8,9.8-9.8s9.8,4.4,9.8,9.8S1686.9,686.3,1681.5,686.3z"/>
<path class="st1" d="M1485.4,715.7v4.9c0,5.4-4.4,9.8-9.8,9.8v9.8c5.4,0,9.8,4.4,9.8,9.8v4.9c0,8.1,6.6,14.7,14.7,14.7h4.9v-9.8
	h-4.9c-2.7,0-4.9-2.2-4.9-4.9V750c0-5.8-2.6-11.1-6.7-14.7c4.1-3.6,6.7-8.9,6.7-14.7v-4.9c0-2.7,2.2-4.9,4.9-4.9h4.9V701h-4.9
	C1492,701,1485.4,707.6,1485.4,715.7z"/>
<path class="st1" d="M1637.4,764.7v-4.9c0-8.1-6.6-14.7-14.7-14.7h-4.9v9.8h4.9c2.7,0,4.9,2.2,4.9,4.9v4.9c0,5.8,2.6,11.1,6.7,14.7
	c-4.1,3.6-6.7,8.9-6.7,14.7v4.9c0,2.7-2.2,4.9-4.9,4.9h-4.9v9.8h4.9c8.1,0,14.7-6.6,14.7-14.7v-4.9c0-5.4,4.4-9.8,9.8-9.8v-9.8
	C1641.8,774.5,1637.4,770.1,1637.4,764.7z"/>
<path class="st1" d="M1514.8,705.9h93.2v9.8h-93.2V705.9z"/>
<path class="st1" d="M1534.5,725.5h73.5v9.8h-73.5V725.5z"/>
<path class="st1" d="M1514.8,725.5h9.8v9.8h-9.8V725.5z"/>
<path class="st1" d="M1514.8,745.1h93.2v9.8h-93.2V745.1z"/>
<path class="st1" d="M1514.8,764.7h93.2v9.8h-93.2V764.7z"/>
<path class="st1" d="M1598.2,784.3h9.8v9.8h-9.8V784.3z"/>
<path class="st1" d="M1514.8,784.3h73.5v9.8h-73.5V784.3z"/>
<path class="st1" d="M1514.8,803.9h93.2v9.8h-93.2V803.9z"/>
</svg>
