<svg id="Layer_1" data-name="Layer 1" xmlns="http://www.w3.org/2000/svg" viewBox="0 0 795.53 987.94"><defs><style>.cls-1{fill:#f2f2f2;}.cls-2{fill:#f7498e;}</style></defs><path class="cls-1" d="M426.61,373q18.34,24,30.34,57.86t12,64.93v311.9q0,79-53.63,132.67T281.24,993.94H102V6H281.24q52.22,0,95.27,25.4a185.48,185.48,0,0,1,67.74,68.45A182.7,182.7,0,0,1,469,192.3v56.45Q469,315.08,426.61,373Zm-99.5-79q17.64-16.94,17.64-45.16V192.3q0-24-18.35-43.05T281.24,130.2h-55V310.85h55Q309.47,310.85,327.11,293.91ZM326.4,453.4Q308.06,435,281.24,435.05h-55V869.74h55q28.23,0,45.87-16.93t17.64-45.17V495.74Q344.75,471.74,326.4,453.4Z" transform="translate(-102 -6)"/><path class="cls-2" d="M897.53,250.16q0,72-43.75,125.61,43.74,43.76,43.75,118.56V993.94H779V494.33q0-22.59-19.06-39.52t-43-16.94h-62.1V993.94H529.17V6H654.78V312.26h62.1q24,0,43-19.76T779,250.16V6H897.53V250.16Z" transform="translate(-102 -6)"/></svg>