<?xml version="1.0" encoding="utf-8"?>
<!-- Generator: Adobe Illustrator 22.0.1, SVG Export Plug-In . SVG Version: 6.00 Build 0)  -->
<svg version="1.1" id="Lager_1" xmlns="http://www.w3.org/2000/svg" xmlns:xlink="http://www.w3.org/1999/xlink" x="0px" y="0px"
	 viewBox="0 0 1920 1080" style="enable-background:new 0 0 1920 1080;" xml:space="preserve">
<style type="text/css">
	.st0{fill:#F2F2F2;}
	.st1{fill:#F7498E;}
</style>
<g>
	<path class="st0" d="M613,449c5.2,6.8,9.5,15,12.9,24.6s5.1,18.8,5.1,27.6v132.6c0,22.4-7.6,41.2-22.8,56.4
		C593,705.4,574,713,551.2,713H475V293h76.2c14.8,0,28.3,3.6,40.5,10.8c12.2,7.2,21.8,16.9,28.8,29.1s10.5,25.3,10.5,39.3v24
		C631,415,625,432.6,613,449z M570.7,415.4c5-4.8,7.5-11.2,7.5-19.2v-24c0-6.8-2.6-12.9-7.8-18.3s-11.6-8.1-19.2-8.1h-23.4v76.8
		h23.4C559.2,422.6,565.7,420.2,570.7,415.4z M570.4,483.2c-5.2-5.2-11.6-7.8-19.2-7.8h-23.4v184.8h23.4c8,0,14.5-2.4,19.5-7.2
		s7.5-11.2,7.5-19.2V501.2C578.2,494.4,575.6,488.4,570.4,483.2z"/>
	<path class="st0" d="M778.6,316.1c15.2,15.4,22.8,34.3,22.8,56.7v260.4c0,14-3.5,27.1-10.5,39.3s-16.6,22-28.8,29.4
		S736.4,713,721.6,713c-13.6,0-26.3-3.7-38.1-11.1c-11.8-7.4-21.2-17.2-28.2-29.4s-10.5-25.3-10.5-39.3V372.8
		c0-14.8,3.5-28.3,10.5-40.5s16.3-21.8,27.9-28.8c11.6-7,24.4-10.5,38.4-10.5C744.4,293,763.4,300.7,778.6,316.1z M741.1,351.8
		c-5-5.6-11.5-8.4-19.5-8.4c-6.8,0-12.9,2.9-18.3,8.7c-5.4,5.8-8.1,12.7-8.1,20.7v260.4c0,6.4,2.8,12.4,8.4,18
		c5.6,5.6,11.6,8.4,18,8.4c8,0,14.5-2.7,19.5-8.1c5-5.4,7.5-11.5,7.5-18.3V372.8C748.6,364.4,746.1,357.4,741.1,351.8z"/>
	<path class="st0" d="M949,316.1c15.2,15.4,22.8,34.3,22.8,56.7v260.4c0,14-3.5,27.1-10.5,39.3s-16.6,22-28.8,29.4
		S906.8,713,892,713c-13.6,0-26.3-3.7-38.1-11.1c-11.8-7.4-21.2-17.2-28.2-29.4s-10.5-25.3-10.5-39.3V372.8
		c0-14.8,3.5-28.3,10.5-40.5s16.3-21.8,27.9-28.8c11.6-7,24.4-10.5,38.4-10.5C914.8,293,933.8,300.7,949,316.1z M911.5,351.8
		c-5-5.6-11.5-8.4-19.5-8.4c-6.8,0-12.9,2.9-18.3,8.7c-5.4,5.8-8.1,12.7-8.1,20.7v260.4c0,6.4,2.8,12.4,8.4,18
		c5.6,5.6,11.6,8.4,18,8.4c8,0,14.5-2.7,19.5-8.1c5-5.4,7.5-11.5,7.5-18.3V372.8C919,364.4,916.5,357.4,911.5,351.8z"/>
	<path class="st1" d="M1142.2,396.8c0,20.4-6.2,38.2-18.6,53.4c12.4,12.4,18.6,29.2,18.6,50.4V713h-50.4V500.6
		c0-6.4-2.7-12-8.1-16.8s-11.5-7.2-18.3-7.2H1039V713h-53.4V293h53.4v130.2h26.4c6.8,0,12.9-2.8,18.3-8.4s8.1-11.6,8.1-18V293h50.4
		L1142.2,396.8L1142.2,396.8z"/>
	<path class="st0" d="M1315,713h-159V293h159l-53.4,52.8h-52.8V452h52.8v52.8h-52.8v155.4h52.8L1315,713z"/>
	<path class="st0" d="M1452.4,447.2c14.4,14.4,21.6,32,21.6,52.8v213h-53.4V500c0-8-2.4-14.4-7.2-19.2c-4.8-4.8-11.2-7.2-19.2-7.2
		h-27V713h-50.4V293h77.4c14.8,0,28.3,3.4,40.5,10.2c12.2,6.8,21.8,16.1,28.8,27.9s10.5,24.7,10.5,38.7v24
		C1474,415,1466.8,432.8,1452.4,447.2z M1413.4,413c4.8-4.8,7.2-11.2,7.2-19.2v-24c0-6.8-2.5-12.9-7.5-18.3s-11.3-8.1-18.9-8.1h-27
		v76.8h27C1402.2,420.2,1408.6,417.8,1413.4,413z"/>
</g>
</svg>
