<?xml version="1.0" encoding="utf-8"?>
<!-- Generator: Adobe Illustrator 22.0.1, SVG Export Plug-In . SVG Version: 6.00 Build 0)  -->
<svg version="1.1" id="Lager_1" xmlns="http://www.w3.org/2000/svg" xmlns:xlink="http://www.w3.org/1999/xlink" x="0px" y="0px"
	 viewBox="0 0 1000 1000" style="enable-background:new 0 0 1000 1000;" xml:space="preserve">
<style type="text/css">
	.st0{fill:#332E60;}
	.st1{fill:#FCFCFC;}
</style>
<circle class="st0" cx="500" cy="505" r="487"/>
<g>
	<g>
		<path class="st1" d="M784.6,230.2L230.2,784.6c-4.1,4.1-10.7,4.1-14.8,0h0c-4.1-4.1-4.1-10.7,0-14.8l554.4-554.4
			c4.1-4.1,10.7-4.1,14.8,0v0C788.7,219.5,788.7,226.1,784.6,230.2z"/>
	</g>
	<g>
		<path class="st1" d="M769.8,784.6L215.4,230.2c-4.1-4.1-4.1-10.7,0-14.8l0,0c4.1-4.1,10.7-4.1,14.8,0l554.4,554.4
			c4.1,4.1,4.1,10.7,0,14.8l0,0C780.5,788.7,773.9,788.7,769.8,784.6z"/>
	</g>
</g>
</svg>
