<?xml version="1.0" encoding="utf-8"?>
<!-- Generator: Adobe Illustrator 22.0.1, SVG Export Plug-In . SVG Version: 6.00 Build 0)  -->
<svg version="1.1" id="Grupp_1_1_" xmlns="http://www.w3.org/2000/svg" xmlns:xlink="http://www.w3.org/1999/xlink" x="0px" y="0px"
	 viewBox="0 0 305.3 115.2" style="enable-background:new 0 0 305.3 115.2;" xml:space="preserve">
<style type="text/css">
	.st0{fill-rule:evenodd;clip-rule:evenodd;fill:#90EE90;}
	.st1{fill:#000333;}
</style>
<g id="Form_1">
	<g>
		<path class="st0" d="M280.5,45.2C267.1,71,229.4,116.1,134,95.5c-1.9-0.4-2.8,2.3-1,3.1c34.6,15.3,125.5,45,150.5-52.2
			C284,44.5,281.4,43.5,280.5,45.2z M294.9,41c-5.4-17.7-17-9.6-23.6-3c-0.5,0.5,0.2,1.2,0.7,0.8c11.8-8.4,18.8-2,21.9,2.6
			C294.3,41.9,295.1,41.5,294.9,41z M132.8,89.1c1.3-0.2,1.2-2.1-0.1-2.1c-23.7-0.3-1.8,17.9-1.8,17.9
			C118.9,94.2,124.5,90.3,132.8,89.1z"/>
	</g>
</g>
<g>
	<path class="st1" d="M54.9,70.1c-2.2,2.2-4.2,3.8-5.9,4.8c-1.7,1-3.7,1.5-5.8,1.5c-2.3,0-4.2-0.8-5.7-2.3c-1.4-1.5-2.2-3.5-2.2-5.9
		c0-3.7,1.3-7,3.8-9.9c2.5-3,5.4-4.4,8.4-4.4c1.6,0,2.9,0.4,3.9,1.2c1,0.8,1.5,1.9,1.5,3.3c0,3.6-3.8,6.5-11.4,8.7
		c0.7,3.4,2.5,5.1,5.4,5.1c1.1,0,2.2-0.3,3.3-0.9c1-0.6,2.6-2,4.7-4.1V70.1z M41.3,65.3c4.4-1.2,6.6-3.5,6.6-6.9
		c0-1.7-0.6-2.5-1.8-2.5c-1.1,0-2.2,0.9-3.3,2.6C41.9,60.3,41.3,62.5,41.3,65.3z"/>
	<path class="st1" d="M82.6,70.1c-2.8,2.6-4.7,4.3-5.9,5.1s-2.3,1.2-3.4,1.2c-2.7,0-4-2.4-3.9-7.2c-1.7,2.5-3.3,4.3-4.8,5.5
		c-1.5,1.2-3,1.8-4.5,1.8c-1.5,0-2.8-0.7-3.9-2.1c-1.1-1.4-1.6-3.2-1.6-5.2c0-2.6,0.7-5.1,2.1-7.4c1.4-2.3,3.3-4.2,5.5-5.7
		c2.2-1.5,4.2-2.2,5.9-2.2c2.2,0,3.7,1,4.5,3l5.3-2.9h1.5l-2.3,7.6c-1.2,3.8-1.8,6.4-1.8,7.8c0,1.5,0.5,2.2,1.6,2.2
		c0.7,0,1.4-0.4,2.2-1.1c0.8-0.7,2-1.8,3.4-3.3V70.1z M63.6,71.5c1.7,0,3.4-1.5,4.9-4.4c1.5-2.9,2.3-5.7,2.3-8.1
		c0-1-0.2-1.7-0.6-2.3s-1-0.8-1.7-0.8c-1.7,0-3.4,1.5-4.9,4.4c-1.5,2.9-2.3,5.6-2.3,8.1c0,0.9,0.2,1.7,0.7,2.3
		C62.3,71.2,62.9,71.5,63.6,71.5z"/>
	<path class="st1" d="M90.5,54.9c1.2-0.3,2.4-0.6,3.6-0.8c1.2-0.2,1.9-0.3,2.2-0.3c0.2,0,0.3,0.1,0.3,0.2c0,0.3-0.1,0.5-0.2,0.8
		c-0.3,0.8-0.4,1.6-0.4,2.3c0,0.9,0.5,2.1,1.6,3.7c1,1.6,1.6,3,1.6,4.3c0,2.6-1.3,5.2-3.8,7.6s-5.2,3.7-7.9,3.7
		c-1.2,0-2.2-0.3-3.2-0.9c-1-0.6-1.5-1.3-1.5-2c0-0.4,0.5-1.2,1.4-2.4c1-1.2,1.6-1.7,2.1-1.7c0.6,0,1,0.7,1.5,2.1
		c0.4,1.4,1.2,2.1,2.2,2.1s2-0.5,3-1.5s1.4-2,1.4-3.1c0-1.1-0.6-2.5-1.8-4.4c-1.2-1.8-2-3.3-2.3-4.6c-2,3.2-4.5,6.5-7.6,9.9H82v-2.3
		C86.2,63.3,89.1,59,90.5,54.9z"/>
	<path class="st1" d="M131.7,70.1c-2.2,2.1-5.7,4.3-10.5,6.5c-1.6,4.6-3.4,7.8-5.4,9.7c-2,1.9-4.1,2.8-6.3,2.8c-1.1,0-2-0.3-2.7-1
		c-0.7-0.7-1-1.6-1-2.7c0-3.4,3.1-6.5,9.4-9.2l1.6-5.6c-3.3,3.6-6.1,5.5-8.6,5.5c-1.3,0-2.4-0.5-3.2-1.6c-0.8-1.1-1.2-2.5-1.2-4.4
		c0-2.6,0.6-5.4,1.7-8.4l2.5-6.6l7.5-1.3l-3.2,7.7c-1.5,3.7-2.2,6.5-2.2,8.4c0,1.6,0.5,2.3,1.6,2.3c1.1,0,2.3-0.9,3.7-2.6
		c1.4-1.7,2.5-3.9,3.5-6.4l3-8.1l7.1-1.3L122,74.1c4-1.8,7.2-4.1,9.7-6.9V70.1z M114.5,78.8c-2.1,0.9-3.8,2-4.9,3.2
		c-1.1,1.2-1.7,2.3-1.7,3.5c0,1.2,0.5,1.7,1.5,1.7C111.3,87.2,113,84.4,114.5,78.8z"/>
	<path class="st1" d="M159.9,45.6c-1,0.9-1.7,1.9-2.2,3.1c-0.5,1.1-1,3.4-1.3,6.7c-0.4,3.4-0.9,6.2-1.5,8.4s-1.6,4.4-3.1,6.3
		s-3.3,3.5-5.5,4.6c-2.2,1.1-4.6,1.7-7.2,1.7c-2.3,0-4.1-0.5-5.3-1.5c-1.2-1-1.8-2.3-1.8-4.1c0-0.6,0.1-1.2,0.2-1.6
		c0.8-0.7,1.8-1.4,2.9-2c1.1-0.6,1.9-0.8,2.3-0.8c0.6,0,0.9,0.5,0.9,1.4c0,0.2-0.1,0.7-0.2,1.6c-0.1,0.9-0.2,1.5-0.2,1.7
		c0,2.1,0.9,3.2,2.7,3.2c1.8,0,3.5-1.2,4.8-3.6c1.4-2.4,2.3-6,2.9-10.8s1.4-8.1,2.5-9.9c1.1-1.8,2.4-3.2,4-4.2s2.9-1.5,3.8-1.5
		C159,44.4,159.5,44.8,159.9,45.6z M159.1,55.6c1.8,0,3.2-0.7,4-2.2c0.8-1.5,1.3-3.1,1.3-4.8c0-2.4-0.8-4.3-2.4-5.7
		c-1.6-1.4-3.7-2.1-6.4-2.1c-3.6,0-6.8,1-9.7,3.1c-2.9,2.1-4.3,4.4-4.3,6.9c0,1.5,0.8,2.6,2.4,3.3c0.4,0.2,0.6,0.3,0.6,0.5v0.8
		c0,0.4-0.7,0.9-2.1,1.4c-1.4,0.6-2.3,0.9-2.7,0.9c-0.7,0-1.4-0.5-2-1.6c-0.7-1.1-1-2.2-1-3.4c0-2.1,0.8-4.2,2.5-6.4s4.1-4,7.1-5.4
		c3.1-1.4,6.6-2,10.6-2c4.2,0,7.7,0.9,10.3,2.7c2.6,1.8,3.9,4.1,3.9,6.8c0,4.1-2.9,7-8.8,8.5c4.6,1.4,6.9,4.3,6.9,8.5
		c0,3.1-1.2,5.7-3.5,7.9c-2.3,2.2-5.1,3.3-8.3,3.3c-1.4,0-2.6-0.3-3.5-0.9c-0.9-0.6-1.4-1.3-1.4-2.1c0-0.5,0.3-1.3,0.9-2.2
		c0.6-0.9,1.2-1.4,1.7-1.4c0.7,0,1.1,0.8,1.3,2.5c0.1,1.3,0.5,2,1.2,2c1.2,0,2.2-1.3,3.1-3.9s1.3-5.2,1.3-7.8c0-3.2-1.1-4.9-3.4-5.3
		L159.1,55.6z"/>
	<path class="st1" d="M195.3,70.1c-0.9,0.8-1.7,1.3-2.6,1.6c-0.8,0.3-1.5,0.5-2,0.5c-1.2,0-2.5-0.5-3.7-1.5
		c-2.5,3.8-5.3,5.6-8.5,5.6c-2,0-3.6-0.8-4.9-2.3s-1.9-3.5-1.9-6c0-3.9,1.4-7.3,4.2-10.1s6.1-4.2,10-4.2c1.5,0,2.5,0.2,3.2,0.5
		c0.7,0.3,1.1,0.7,1.3,1.1c0.2,0.4,0.2,1,0.2,1.6c0,3.2-0.9,7.2-2.6,11.9c0.9,0.8,1.8,1.2,2.8,1.2c1.2,0,2.6-1,4.5-3V70.1z
		 M186.7,55.6c-0.3-0.1-0.6-0.2-1.1-0.2c-2.2,0-4,1.2-5.3,3.5c-1.3,2.3-1.9,5.1-1.9,8.2c0,1.7,0.3,3.1,0.8,4.1
		c0.6,1,1.3,1.5,2.3,1.5c1.2,0,2.6-1.1,4-3.4c-1.6-2-2.4-4.2-2.4-6.6C183.1,60,184.3,57.6,186.7,55.6z"/>
	<path class="st1" d="M218.5,70.1c-0.9,0.8-1.7,1.3-2.6,1.6c-0.8,0.3-1.5,0.5-2,0.5c-1.2,0-2.5-0.5-3.7-1.5
		c-2.5,3.8-5.3,5.6-8.5,5.6c-2,0-3.6-0.8-4.9-2.3s-1.9-3.5-1.9-6c0-3.9,1.4-7.3,4.2-10.1c2.8-2.8,6.1-4.2,10-4.2
		c1.5,0,2.5,0.2,3.2,0.5c0.7,0.3,1.1,0.7,1.3,1.1c0.2,0.4,0.2,1,0.2,1.6c0,3.2-0.9,7.2-2.6,11.9c0.9,0.8,1.8,1.2,2.8,1.2
		c1.2,0,2.6-1,4.5-3V70.1z M210,55.6c-0.3-0.1-0.6-0.2-1.1-0.2c-2.2,0-4,1.2-5.3,3.5c-1.3,2.3-1.9,5.1-1.9,8.2
		c0,1.7,0.3,3.1,0.8,4.1c0.6,1,1.3,1.5,2.3,1.5c1.2,0,2.6-1.1,4-3.4c-1.6-2-2.4-4.2-2.4-6.6C206.4,60,207.6,57.6,210,55.6z"/>
	<path class="st1" d="M243.9,70.1c-3.9,4.3-7.2,6.4-9.8,6.4c-1.2,0-2.3-0.4-3.1-1.3c-0.8-0.9-1.3-1.9-1.3-3.2c0-0.6,0.1-1.5,0.3-2.7
		c0.2-1.2,0.3-1.9,0.3-2c0-0.8-0.4-1.2-1.3-1.2c-0.9,0-1.3-0.4-1.3-1c0-0.6,0.1-1,0.4-1.2c0.3-0.2,0.7-0.3,1.4-0.3
		c1.9-0.1,3.3-0.4,4.2-1.2s1.4-1.6,1.4-2.6c0-0.7-0.3-1.3-0.8-1.7c-0.5-0.5-1.2-0.7-2-0.7c-0.4,0-0.8,0.1-1.2,0.2
		c-0.4,0.1-0.8,0.3-1.2,0.5c-0.4,0.2-0.8,0.5-1.2,0.9c-0.4,0.4-0.9,0.8-1.3,1.3c-0.5,0.5-0.9,1.1-1.5,1.8c-0.3,0.4-0.6,2.1-1,5.1
		c-0.2,1.6-0.3,3-0.4,4.4c-0.1,1.2-0.1,2.7,0,4.2l-5.9,1c-0.2-1.3-0.3-2.9-0.3-4.8c0-5.2,0.7-10.1,2.1-14.8
		c1.4-4.7,3.7-9.6,6.9-14.5c2.5-1,4.6-1.8,6.4-2.3c1.8-0.6,2.8-0.8,3-0.8c0.4,0,0.8,0.4,1.2,1.2c0.4,0.8,0.6,1.7,0.6,2.6
		c0,1.5-0.5,3.2-1.5,5c-1,1.8-2.6,4-4.7,6.6c1.5-0.4,2.7-0.6,3.7-0.6c1.6,0,2.9,0.4,3.9,1.2c1,0.8,1.5,1.9,1.5,3.1
		c0,2.9-2.6,5-7.7,6.3c2,0.5,3,1.6,3,3.5l-0.2,2.3c0,1.1,0.5,1.6,1.5,1.6c0.7,0,1.5-0.3,2.4-1c0.9-0.7,2.1-2,3.7-3.9V70.1z
		 M226.9,57.6l1.7-1.9c5.1-5.7,7.6-9.7,7.6-12c0-1.1-0.5-1.6-1.4-1.6c-1.1,0-2.3,1.3-3.7,3.8C229.7,48.3,228.3,52.3,226.9,57.6z"/>
</g>
</svg>
