<?xml version="1.0" encoding="utf-8"?>
<!-- Generator: Adobe Illustrator 22.0.1, SVG Export Plug-In . SVG Version: 6.00 Build 0)  -->
<svg version="1.1" id="eea36a73-aee8-429d-873f-f80541e99906"
	 xmlns="http://www.w3.org/2000/svg" xmlns:xlink="http://www.w3.org/1999/xlink" x="0px" y="0px" viewBox="0 0 936.3 604"
	 style="enable-background:new 0 0 936.3 604;" xml:space="preserve">
<style type="text/css">
	.st0{opacity:0.28;fill:#CCCCCC;}
	.st1{fill:#332E60;}
	.st2{fill:#90EE90;}
	.st3{fill:#FF6584;}
	.st4{fill:#3F3D56;}
	.st5{fill:#CCCCCC;}
</style>
<path class="st0" d="M102.7,248.4c0-2.8,2.2-5,5-5h88c2.8,0,5,2.2,5,5s-2.2,5-5,5h-88C104.9,253.4,102.7,251.2,102.7,248.4z"/>
<path class="st0" d="M34.7,283.4c0-2.8,2.2-5,5-5h156c2.8,0,5,2.2,5,5s-2.2,5-5,5h-156C36.9,288.4,34.7,286.2,34.7,283.4z"/>
<circle class="st1" cx="468.1" cy="302" r="261.6"/>
<g>
	<path class="st2" d="M391.6,178.4c-51.7,30.9-68.6,97.8-37.7,149.5c16.6,27.8,43.5,45.5,73,51.2c24.4,4.7,42.4-22.2,29.1-43.3
		c-0.1-0.2-0.2-0.3-0.3-0.5c-25.3,2.7-51.1-9.8-63.9-34.1c-15.5-29.4-5.7-66.3,22.3-84.2c23.9-15.3,53.8-12.8,74.6,3.7
		c0.2-0.1,0.3-0.2,0.5-0.2c21.3-10.3,20.7-41-1.3-49.7C457.4,158.7,421.9,160.4,391.6,178.4z"/>
	<path class="st2" d="M537.1,198.7c-4.2-8.6-6.4-17.8-6.6-26.8c0.4-0.2,0.8-0.4,1.3-0.6c39.9-19.6,88-3.1,107.6,36.7
		c1,2,1.9,4.1,2.7,6.2c-5.2,5.6-11.5,10.4-18.8,13.9C591.4,243.8,552.8,230.6,537.1,198.7z"/>
	<path class="st2" d="M451.3,408.4h-8.8c-11,0-20-9-20-20V354c0-11,9-20,20-20h8.8c11,0,20,9,20,20v34.4
		C471.3,399.4,462.3,408.4,451.3,408.4z"/>
	<circle class="st2" cx="446.9" cy="444.5" r="24.4"/>
</g>
<path class="st3" d="M502.9,355.8h-15.3c-1,0-1.9-0.8-1.9-1.9v-18c0-1,0.8-1.9,1.9-1.9h15.3c1,0,1.9,0.8,1.9,1.9v18
	C504.8,354.9,503.9,355.8,502.9,355.8z"/>
<path class="st0" d="M73.7,318.4c0-2.8,2.2-5,5-5h117c2.8,0,5,2.2,5,5s-2.2,5-5,5h-117C75.9,323.4,73.7,321.2,73.7,318.4z"/>
<path class="st0" d="M34.7,353.4c0-2.8,2.2-5,5-5h156c2.8,0,5,2.2,5,5s-2.2,5-5,5h-156C36.9,358.4,34.7,356.2,34.7,353.4z"/>
<path class="st4" d="M734.5,308h-10v-10h10V308z M726.5,306h6v-6h-6V306z"/>
<rect x="732.8" y="302" class="st4" width="53" height="2"/>
<circle class="st4" cx="785.8" cy="303" r="2.1"/>
<rect x="673.8" y="302" class="st4" width="52" height="2"/>
<circle class="st4" cx="673.8" cy="303" r="2.1"/>
<path class="st4" d="M256.6,457.5h-10v-10h10V457.5z M248.6,455.5h6v-6h-6V455.5z"/>
<rect x="250.6" y="456.7" class="st4" width="2" height="52"/>
<circle class="st4" cx="251.6" cy="508.7" r="2.1"/>
<rect x="250.6" y="396.7" class="st4" width="2" height="52"/>
<circle class="st4" cx="251.6" cy="396.7" r="2.1"/>
<path class="st4" d="M535.5,338.8h-10v-10h10V338.8z M527.5,336.8h6v-6h-6V336.8z"/>
<rect x="529.5" y="338" class="st4" width="2" height="52"/>
<circle class="st4" cx="530.5" cy="390" r="2.1"/>
<rect x="529.5" y="276" class="st4" width="2" height="54"/>
<circle class="st4" cx="530.5" cy="278" r="2.1"/>
<path class="st4" d="M317.4,113.8h-10v-10h10V113.8z M309.4,111.8h6v-6h-6V111.8z"/>
<rect x="316.7" y="107.8" class="st4" width="53" height="2"/>
<circle class="st4" cx="368.7" cy="108.8" r="2.1"/>
<rect x="256.7" y="107.8" class="st4" width="52" height="2"/>
<circle class="st4" cx="256.7" cy="108.8" r="2.1"/>
<circle class="st5" cx="218.7" cy="248.4" r="5"/>
<circle class="st5" cx="218.7" cy="283.4" r="5"/>
<circle class="st5" cx="218.7" cy="318.4" r="5"/>
<circle class="st5" cx="218.7" cy="353.4" r="5"/>
</svg>
