<?xml version="1.0" encoding="utf-8"?>
<!-- Generator: Adobe Illustrator 22.0.1, SVG Export Plug-In . SVG Version: 6.00 Build 0)  -->
<svg version="1.1" id="eea36a73-aee8-429d-873f-f80541e99906"
	 xmlns="http://www.w3.org/2000/svg" xmlns:xlink="http://www.w3.org/1999/xlink" x="0px" y="0px" viewBox="0 0 936.3 604"
	 style="enable-background:new 0 0 936.3 604;" xml:space="preserve">
<style type="text/css">
	.st0{fill:#1A1847;}
	.st1{fill:#3F3D56;}
	.st2{fill:#5F5E7F;}
	.st3{opacity:0.31;}
	.st4{fill:#90EE90;}
</style>
<circle class="st0" cx="790.5" cy="109.8" r="261.6"/>
<path class="st1" d="M882.9,314h-10v-10h10V314z M874.9,312h6v-6h-6V312z"/>
<rect x="881.2" y="308" class="st1" width="53" height="2"/>
<circle class="st1" cx="934.2" cy="309" r="2.1"/>
<rect x="822.2" y="308" class="st2" width="52" height="2"/>
<circle class="st1" cx="822.2" cy="309" r="2.1"/>
<path class="st1" d="M683.9,344.8h-10v-10h10V344.8z M675.9,342.8h6v-6h-6V342.8z"/>
<circle class="st1" cx="678.9" cy="396" r="2.1"/>
<circle class="st1" cx="678.9" cy="284" r="2.1"/>
<g class="st3">
	<path class="st4" d="M757.1-51.2c-51.7,30.9-68.6,97.8-37.7,149.5c16.6,27.8,43.5,45.5,73,51.2c24.4,4.7,42.4-22.2,29.1-43.3
		c-0.1-0.2-0.2-0.3-0.3-0.5c-25.3,2.7-51.1-9.8-63.9-34.1c-15.5-29.4-5.7-66.3,22.3-84.2c23.9-15.3,53.8-12.8,74.6,3.7
		c0.2-0.1,0.3-0.2,0.5-0.2c21.3-10.3,20.7-41-1.3-49.7C822.9-70.9,787.4-69.2,757.1-51.2z"/>
	<path class="st4" d="M902.6-30.9c-4.2-8.6-6.4-17.8-6.6-26.8c0.4-0.2,0.8-0.4,1.3-0.6c39.9-19.6,88-3.1,107.6,36.7
		c1,2,1.9,4.1,2.7,6.2c-5.2,5.6-11.5,10.4-18.8,13.9C956.9,14.2,918.3,1,902.6-30.9z"/>
	<path class="st4" d="M816.8,178.8H808c-11,0-20-9-20-20v-34.4c0-11,9-20,20-20h8.8c11,0,20,9,20,20v34.4
		C836.8,169.8,827.8,178.8,816.8,178.8z"/>
	<circle class="st4" cx="812.4" cy="214.9" r="24.4"/>
</g>
</svg>
