<?xml version="1.0" encoding="utf-8"?>
<!-- Generator: Adobe Illustrator 25.4.1, SVG Export Plug-In . SVG Version: 6.00 Build 0)  -->
<svg version="1.1" id="Capa_1" xmlns="http://www.w3.org/2000/svg" xmlns:xlink="http://www.w3.org/1999/xlink" x="0px" y="0px"
	 viewBox="0 0 512 512" style="enable-background:new 0 0 512 512;" xml:space="preserve">
<style type="text/css">
	.st0{fill:#02E472;}
</style>
<g>
	<path class="st0" d="M456.7,0H385c-8.3,0-15,6.7-15,15s6.7,15,15,15h71.7c14,0,25.3,11.4,25.3,25.3V127c0,8.3,6.7,15,15,15
		s15-6.7,15-15V55.3C512,24.8,487.2,0,456.7,0z"/>
	<path class="st0" d="M15,142c8.3,0,15-6.7,15-15V55.3C30,41.4,41.4,30,55.3,30H127c8.3,0,15-6.7,15-15s-6.7-15-15-15H55.3
		C24.8,0,0,24.8,0,55.3V127C0,135.3,6.7,142,15,142z"/>
	<path class="st0" d="M127,482H55.3c-14,0-25.3-11.4-25.3-25.3V385c0-8.3-6.7-15-15-15s-15,6.7-15,15v71.7
		C0,487.2,24.8,512,55.3,512H127c8.3,0,15-6.7,15-15S135.3,482,127,482z"/>
	<path class="st0" d="M497,370c-8.3,0-15,6.7-15,15v71.7c0,14-11.4,25.3-25.3,25.3H385c-8.3,0-15,6.7-15,15s6.7,15,15,15h71.7
		c30.5,0,55.3-24.8,55.3-55.3V385C512,376.7,505.3,370,497,370z"/>
	<path class="st0" d="M341.6,110h47.6c6.5,0,11.8,5.3,11.8,11.8v47.6c0,8.3,6.7,15,15,15s15-6.7,15-15v-47.6
		c0-23-18.7-41.8-41.8-41.8h-47.6c-8.3,0-15,6.7-15,15S333.4,110,341.6,110z"/>
	<path class="st0" d="M81,121.8v47.6c0,8.3,6.7,15,15,15s15-6.7,15-15v-47.6c0-6.5,5.3-11.8,11.8-11.8h47.6c8.3,0,15-6.7,15-15
		s-6.7-15-15-15h-47.6C99.7,80,81,98.7,81,121.8z"/>
	<path class="st0" d="M170.4,400h-47.6c-6.5,0-11.8-5.3-11.8-11.8v-47.6c0-8.3-6.7-15-15-15s-15,6.7-15,15v47.6
		c0,23,18.7,41.8,41.8,41.8h47.6c8.3,0,15-6.7,15-15S178.6,400,170.4,400z"/>
	<path class="st0" d="M431,388.2v-47.6c0-8.3-6.7-15-15-15s-15,6.7-15,15v47.6c0,6.5-5.3,11.8-11.8,11.8h-47.6c-8.3,0-15,6.7-15,15
		s6.7,15,15,15h47.6C412.3,430,431,411.3,431,388.2z"/>
	<path class="st0" d="M1,256c0,8.3,6.7,15,15,15h480c8.3,0,15-6.7,15-15c0-8.3-6.7-15-15-15H16C7.7,241,1,247.7,1,256z"/>
</g>
</svg>
