<svg id="angular" xmlns="http://www.w3.org/2000/svg" viewBox="0 0 1920 1080"><defs><style>.cls-1,.cls-16{fill:#f8fdff;}.cls-17,.cls-2{fill:none;}.cls-2{stroke:#e5e5e5;}.cls-13,.cls-3,.cls-6,.cls-7,.cls-8{fill:#e5e5e5;}.cls-15,.cls-17,.cls-18,.cls-3{opacity:0.5;}.cls-10,.cls-11,.cls-12,.cls-13,.cls-15,.cls-16,.cls-17,.cls-18,.cls-19,.cls-3,.cls-4,.cls-5,.cls-6,.cls-7,.cls-8,.cls-9{isolation:isolate;}.cls-5{font-size:55.9px;fill:#fcfcfc;}.cls-11,.cls-12,.cls-16,.cls-5{font-family:OpenSans, Open Sans;}.cls-6{opacity:0.3;}.cls-7{stroke:#fff;stroke-linecap:round;stroke-linejoin:round;stroke-width:5.07px;}.cls-13,.cls-7{opacity:0.56;}.cls-8{opacity:0.67;}.cls-9{fill:#feb64f;opacity:0.68;}.cls-10{font-size:17.46px;fill:#fab114;font-family:ArialMT, Arial;}.cls-11,.cls-12{font-size:33.6px;}.cls-11{fill:#992bff;}.cls-12{fill:#353535;}.cls-14{fill:#1dbdff;}.cls-15{fill:#f83e8d;}.cls-16{font-size:15.3px;}.cls-17{stroke:#ff0;stroke-width:2px;}.cls-18,.cls-19,.cls-20{fill:#81e0ff;}.cls-19{opacity:0.2;}</style></defs><title>Rityta 1</title><path class="cls-1" d="M-8,721.28S178.11,554.22,447,577s431.89,112.57,667-95,500.65-213.89,810-65,70,723,70,723l-878,52s-996.24-33.86-1008-34-270-41-270-41L-60,721.28Z"/><circle id="line" class="cls-2" cx="960.5" cy="598.5" r="341.5"/><circle id="angular-2" class="cls-3" cx="413.19" cy="590.31" r="45.19"/><g id="A" class="cls-4"><text class="cls-5" transform="translate(396.41 605.56)">A</text></g><circle id="html-2" class="cls-6" cx="820.5" cy="285.5" r="28.5"/><path class="cls-7" d="M824,271l-15,10,5,7,13-7s7,9.5,0,14a6.83,6.83,0,0,1-9-1"/><circle id="js-2" class="cls-8" cx="1364.81" cy="347.56" r="27.81"/><path class="cls-9" d="M1357,327l30,14-12,22h-17l-10-12Z"/><path id="js-3" class="cls-2" d="M1366,342l-10,1,6,8,8-6,6,7h-9"/><g id="_.JS" data-name=" .JS" class="cls-4"><text class="cls-10" transform="matrix(0.96, 0.3, -0.3, 0.95, 1367.35, 418.54)">...!!!</text></g><circle id="php-2" class="cls-3" cx="1541" cy="794" r="29"/><g id="php-3"><text class="cls-11" transform="matrix(0.95, 0, -0.3, 0.95, 1507.63, 798.71)">3</text><text class="cls-12" transform="matrix(0.95, 0, -0.3, 0.95, 1527.24, 798.71)">ll</text><text></text></g><circle id="css-2" class="cls-13" cx="1236.5" cy="801.5" r="23.5"/><rect id="Rounded_Rectangle_1" data-name="Rounded Rectangle 1" class="cls-14" x="1223" y="791" width="54" height="24" rx="4" ry="4"/><circle id="Ellipse_1_copy_5" data-name="Ellipse 1 copy 5" class="cls-3" cx="714" cy="837" r="28"/><path id="WWW-2" class="cls-15" d="M696,820h35a2,2,0,0,1,2,2v17H694V822A2,2,0,0,1,696,820Z"/><path id="WWW-3" class="cls-15" d="M694,840h39v2a2,2,0,0,1-2,2H696a2,2,0,0,1-2-2v-2Z"/><path id="WWW-4" class="cls-15" d="M706.5,846h16a1.5,1.5,0,0,1,1.5,1.5h0a1.5,1.5,0,0,1-1.5,1.5h-16a1.5,1.5,0,0,1-1.5-1.5h0A1.5,1.5,0,0,1,706.5,846Z"/><path id="WWW-5" class="cls-15" d="M714.5,842h0a1.5,1.5,0,0,1,1.5,1.5v3a1.5,1.5,0,0,1-1.5,1.5h0a1.5,1.5,0,0,1-1.5-1.5v-3A1.5,1.5,0,0,1,714.5,842Z"/><g id="www-6" class="cls-4"><text class="cls-16" transform="translate(695.29 833.98)">www</text></g><path id="lines-2" class="cls-17" d="M136.5,935.05,191,989.5H82.05Z"/><path id="lines-3" class="cls-18" d="M1768,67h0a10,10,0,0,1,10,10v99a10,10,0,0,1-10,10h0a10,10,0,0,1-10-10V77A10,10,0,0,1,1768,67Z"/><path id="lines-4" class="cls-19" d="M1748,151h0a10,10,0,0,1,10,10v99a10,10,0,0,1-10,10h0a10,10,0,0,1-10-10V161A10,10,0,0,1,1748,151Z"/><circle id="vinkel" class="cls-3" cx="433.52" cy="741.91" r="19.52"/><path id="vinkel-2" class="cls-20" d="M433.37,764.81l16-13.85a2.83,2.83,0,1,0-3.56-4.39l-.14.12-16,13.85a2.83,2.83,0,0,0,3.57,4.39Zm16-13.82a2.87,2.87,0,0,0,.29-4L436.1,731.32a2.87,2.87,0,0,0-4.34,3.76l13.52,15.62A2.87,2.87,0,0,0,449.33,751Zm-28-15.68,16-13.84a2.83,2.83,0,0,0-3.57-4.4l-.13.12-16,13.85a2.83,2.83,0,0,0,3.57,4.39ZM435,751a2.87,2.87,0,0,0,.29-4.05L421.72,731.3a2.87,2.87,0,1,0-4.37,3.73l0,0,13.52,15.62A2.87,2.87,0,0,0,435,751Z"/></svg>