<?xml version="1.0" encoding="utf-8"?>
<!-- Generator: Adobe Illustrator 25.4.1, SVG Export Plug-In . SVG Version: 6.00 Build 0)  -->
<svg version="1.1" id="Capa_1" xmlns="http://www.w3.org/2000/svg" xmlns:xlink="http://www.w3.org/1999/xlink" x="0px" y="0px"
	 viewBox="0 0 512 512" style="enable-background:new 0 0 512 512;" xml:space="preserve">
<style type="text/css">
	.st0{fill:#02E472;}
	.st1{fill:#435B4F;}
</style>
<g>
	<path class="st0" d="M137.7,105.7h-52C77.6,105.7,71,99.1,71,91v0c0-8.1,6.6-14.6,14.6-14.6h52c8.1,0,14.6,6.6,14.6,14.6v0
		C152.3,99.1,145.8,105.7,137.7,105.7z"/>
	<path class="st1" d="M137.7,174.3h-52c-8.1,0-14.6-6.6-14.6-14.6v0c0-8.1,6.6-14.6,14.6-14.6h52c8.1,0,14.6,6.6,14.6,14.6v0
		C152.3,167.7,145.8,174.3,137.7,174.3z"/>
	<path class="st0" d="M219,142h-52c-8.1,0-14.6-6.6-14.6-14.6v0c0-8.1,6.6-14.6,14.6-14.6h52c8.1,0,14.6,6.6,14.6,14.6v0
		C233.6,135.4,227.1,142,219,142z"/>
	<path class="st0" d="M274,105.7h-52c-8.1,0-14.6-6.6-14.6-14.6v0c0-8.1,6.6-14.6,14.6-14.6h52c8.1,0,14.6,6.6,14.6,14.6v0
		C288.7,99.1,282.1,105.7,274,105.7z"/>
	<path class="st0" d="M137.7,225.9h-52c-8.1,0-14.6-6.6-14.6-14.6v0c0-8.1,6.6-14.6,14.6-14.6h52c8.1,0,14.6,6.6,14.6,14.6v0
		C152.3,219.4,145.8,225.9,137.7,225.9z"/>
	<path class="st0" d="M241.4,225.9h-52c-8.1,0-14.6-6.6-14.6-14.6v0c0-8.1,6.6-14.6,14.6-14.6h52c8.1,0,14.6,6.6,14.6,14.6v0
		C256,219.4,249.4,225.9,241.4,225.9z"/>
	<path class="st0" d="M496.4,127.4h-52c-8.1,0-14.6-6.6-14.6-14.6v0c0-8.1,6.6-14.6,14.6-14.6h52c8.1,0,14.6,6.6,14.6,14.6v0
		C511,120.8,504.4,127.4,496.4,127.4z"/>
	<path class="st1" d="M352.7,225.9h-52c-8.1,0-14.6-6.6-14.6-14.6v0c0-8.1,6.6-14.6,14.6-14.6h52c8.1,0,14.6,6.6,14.6,14.6v0
		C367.3,219.4,360.7,225.9,352.7,225.9z"/>
	<path class="st1" d="M352.7,145h-52c-8.1,0-14.6-6.6-14.6-14.6v0c0-8.1,6.6-14.6,14.6-14.6h52c8.1,0,14.6,6.6,14.6,14.6v0
		C367.3,138.4,360.7,145,352.7,145z"/>
	<path class="st0" d="M108.3,310.3h-52c-8.1,0-14.6-6.6-14.6-14.6v0c0-8.1,6.6-14.6,14.6-14.6h52c8.1,0,14.6,6.6,14.6,14.6v0
		C123,303.8,116.4,310.3,108.3,310.3z"/>
	<path class="st1" d="M110.6,372.7h-52c-8.1,0-14.6-6.6-14.6-14.6v0c0-8.1,6.6-14.6,14.6-14.6h52c8.1,0,14.6,6.6,14.6,14.6v0
		C125.3,366.2,118.7,372.7,110.6,372.7z"/>
	<path class="st0" d="M340.9,310.3h-52c-8.1,0-14.6-6.6-14.6-14.6v0c0-8.1,6.6-14.6,14.6-14.6h52c8.1,0,14.6,6.6,14.6,14.6v0
		C355.5,303.8,349,310.3,340.9,310.3z"/>
	<path class="st0" d="M219,310.3h-52c-8.1,0-14.6-6.6-14.6-14.6v0c0-8.1,6.6-14.6,14.6-14.6h52c8.1,0,14.6,6.6,14.6,14.6v0
		C233.6,303.8,227.1,310.3,219,310.3z"/>
	<path class="st0" d="M219,372.7h-52c-8.1,0-14.6-6.6-14.6-14.6v0c0-8.1,6.6-14.6,14.6-14.6h52c8.1,0,14.6,6.6,14.6,14.6v0
		C233.6,366.2,227.1,372.7,219,372.7z"/>
	<path class="st0" d="M455.7,310.3h-52c-8.1,0-14.6-6.6-14.6-14.6v0c0-8.1,6.6-14.6,14.6-14.6h52c8.1,0,14.6,6.6,14.6,14.6v0
		C470.3,303.8,463.8,310.3,455.7,310.3z"/>
	<path class="st1" d="M340.9,310.3h-52c-8.1,0-14.6-6.6-14.6-14.6v0c0-8.1,6.6-14.6,14.6-14.6h52c8.1,0,14.6,6.6,14.6,14.6v0
		C355.5,303.8,349,310.3,340.9,310.3z"/>
	<path class="st0" d="M1,256c0,8.3,6.7,15,15,15h480c8.3,0,15-6.7,15-15c0-8.3-6.7-15-15-15H16C7.7,241,1,247.7,1,256z"/>
</g>
</svg>
